{"asset":{"version":"2.0","generator":"THREE.GLTFExporter"},"scenes":[{"name":"AuxScene","nodes":[0]}],"scene":0,"nodes":[{"mesh":0}],"bufferViews":[{"buffer":0,"byteOffset":0,"byteLength":7728,"target":34962,"byteStride":12},{"buffer":0,"byteOffset":7728,"byteLength":7728,"target":34962,"byteStride":12},{"buffer":0,"byteOffset":15456,"byteLength":7728,"target":34962,"byteStride":12},{"buffer":0,"byteOffset":23184,"byteLength":5152,"target":34962,"byteStride":8},{"buffer":0,"byteOffset":28336,"byteLength":5040,"target":34963}],"buffers":[{"byteLength":33376,"uri":"data:application/octet-stream;base64,"}],"accessors":[{"bufferView":0,"componentType":5126,"count":644,"max":[0.3499999940395355,0.9500000476837158,0.02500000037252903],"min":[-0.3499999940395355,1.1175870895385742e-8,-0.02500000037252903],"type":"VEC3"},{"bufferView":1,"componentType":5126,"count":644,"max":[1,1,1],"min":[-1,-1,-1],"type":"VEC3"},{"bufferView":2,"componentType":5126,"count":644,"max":[0.9686274528503418,0.8235294222831726,0.8745098114013672],"min":[0.04313725605607033,0.062745101749897,0.07450980693101883],"type":"VEC3"},{"bufferView":3,"componentType":5126,"count":644,"max":[13.999899864196777,18.999900817871094],"min":[-13.999899864196777,-0.9998999834060669],"type":"VEC2"},{"bufferView":4,"componentType":5125,"count":1260,"max":[643],"min":[0],"type":"SCALAR"}],"materials":[{"pbrMetallicRoughness":{"metallicFactor":0,"roughnessFactor":1}}],"meshes":[{"primitives":[{"mode":4,"attributes":{"POSITION":0,"NORMAL":1,"COLOR_0":2,"TEXCOORD_0":3},"indices":4,"material":0}]}]}