{"asset":{"version":"2.0","generator":"THREE.GLTFExporter"},"scenes":[{"name":"AuxScene","nodes":[0]}],"scene":0,"nodes":[{"mesh":0}],"bufferViews":[{"buffer":0,"byteOffset":0,"byteLength":13632,"target":34962,"byteStride":12},{"buffer":0,"byteOffset":13632,"byteLength":13632,"target":34962,"byteStride":12},{"buffer":0,"byteOffset":27264,"byteLength":13632,"target":34962,"byteStride":12},{"buffer":0,"byteOffset":40896,"byteLength":9088,"target":34962,"byteStride":8},{"buffer":0,"byteOffset":49984,"byteLength":8832,"target":34963}],"buffers":[{"byteLength":58816,"uri":"data:application/octet-stream;base64,"}],"accessors":[{"bufferView":0,"componentType":5126,"count":1136,"max":[0.550000011920929,1.100000023841858,0.02500000037252903],"min":[-0.550000011920929,-7.450580596923828e-9,-0.02500000037252903],"type":"VEC3"},{"bufferView":1,"componentType":5126,"count":1136,"max":[1,1,1],"min":[-1,-1,-1],"type":"VEC3"},{"bufferView":2,"componentType":5126,"count":1136,"max":[0.5254902243614197,0.7568627595901489,0.8745098114013672],"min":[0,0,0],"type":"VEC3"},{"bufferView":3,"componentType":5126,"count":1136,"max":[21.999900817871094,21.999900817871094],"min":[-21.999900817871094,-0.9998999834060669],"type":"VEC2"},{"bufferView":4,"componentType":5125,"count":2208,"max":[1135],"min":[0],"type":"SCALAR"}],"materials":[{"pbrMetallicRoughness":{"metallicFactor":0,"roughnessFactor":1}}],"meshes":[{"primitives":[{"mode":4,"attributes":{"POSITION":0,"NORMAL":1,"COLOR_0":2,"TEXCOORD_0":3},"indices":4,"material":0}]}]}