{"asset":{"version":"2.0","generator":"THREE.GLTFExporter"},"scenes":[{"name":"AuxScene","nodes":[0]}],"scene":0,"nodes":[{"mesh":0}],"bufferViews":[{"buffer":0,"byteOffset":0,"byteLength":9672,"target":34962,"byteStride":12},{"buffer":0,"byteOffset":9672,"byteLength":9672,"target":34962,"byteStride":12},{"buffer":0,"byteOffset":19344,"byteLength":9672,"target":34962,"byteStride":12},{"buffer":0,"byteOffset":29016,"byteLength":6448,"target":34962,"byteStride":8},{"buffer":0,"byteOffset":35464,"byteLength":6336,"target":34963}],"buffers":[{"byteLength":41800,"uri":"data:application/octet-stream;base64,"}],"accessors":[{"bufferView":0,"componentType":5126,"count":806,"max":[0.45000001788139343,1.0499999523162842,0.02500000037252903],"min":[-0.45000001788139343,-7.450580596923828e-9,-0.02500000037252903],"type":"VEC3"},{"bufferView":1,"componentType":5126,"count":806,"max":[1,1,1],"min":[-1,-1,-1],"type":"VEC3"},{"bufferView":2,"componentType":5126,"count":806,"max":[0.04313725605607033,0.5372549295425415,0.42352941632270813],"min":[0,0.062745101749897,0.07450980693101883],"type":"VEC3"},{"bufferView":3,"componentType":5126,"count":806,"max":[17.999900817871094,20.999900817871094],"min":[-17.999900817871094,-0.9998999834060669],"type":"VEC2"},{"bufferView":4,"componentType":5125,"count":1584,"max":[805],"min":[0],"type":"SCALAR"}],"materials":[{"pbrMetallicRoughness":{"metallicFactor":0,"roughnessFactor":1}}],"meshes":[{"primitives":[{"mode":4,"attributes":{"POSITION":0,"NORMAL":1,"COLOR_0":2,"TEXCOORD_0":3},"indices":4,"material":0}]}]}