{"asset":{"version":"2.0","generator":"THREE.GLTFExporter"},"scenes":[{"name":"AuxScene","nodes":[0]}],"scene":0,"nodes":[{"mesh":0}],"bufferViews":[{"buffer":0,"byteOffset":0,"byteLength":14352,"target":34962,"byteStride":12},{"buffer":0,"byteOffset":14352,"byteLength":14352,"target":34962,"byteStride":12},{"buffer":0,"byteOffset":28704,"byteLength":14352,"target":34962,"byteStride":12},{"buffer":0,"byteOffset":43056,"byteLength":9568,"target":34962,"byteStride":8},{"buffer":0,"byteOffset":52624,"byteLength":9264,"target":34963}],"buffers":[{"byteLength":61888,"uri":"data:application/octet-stream;base64,"}],"accessors":[{"bufferView":0,"componentType":5126,"count":1196,"max":[0.550000011920929,1.2000000476837158,0.02500000037252903],"min":[-0.550000011920929,3.725290298461914e-9,-0.02500000037252903],"type":"VEC3"},{"bufferView":1,"componentType":5126,"count":1196,"max":[1,1,1],"min":[-1,-1,-1],"type":"VEC3"},{"bufferView":2,"componentType":5126,"count":1196,"max":[1,0.8235294222831726,0.45098039507865906],"min":[0,0.062745101749897,0.0313725508749485],"type":"VEC3"},{"bufferView":3,"componentType":5126,"count":1196,"max":[21.999900817871094,23.999900817871094],"min":[-21.999900817871094,-0.9998999834060669],"type":"VEC2"},{"bufferView":4,"componentType":5125,"count":2316,"max":[1195],"min":[0],"type":"SCALAR"}],"materials":[{"pbrMetallicRoughness":{"metallicFactor":0,"roughnessFactor":1}}],"meshes":[{"primitives":[{"mode":4,"attributes":{"POSITION":0,"NORMAL":1,"COLOR_0":2,"TEXCOORD_0":3},"indices":4,"material":0}]}]}