{"asset":{"version":"2.0","generator":"THREE.GLTFExporter"},"scenes":[{"name":"AuxScene","nodes":[0]}],"scene":0,"nodes":[{"mesh":0}],"bufferViews":[{"buffer":0,"byteOffset":0,"byteLength":10032,"target":34962,"byteStride":12},{"buffer":0,"byteOffset":10032,"byteLength":10032,"target":34962,"byteStride":12},{"buffer":0,"byteOffset":20064,"byteLength":10032,"target":34962,"byteStride":12},{"buffer":0,"byteOffset":30096,"byteLength":6688,"target":34962,"byteStride":8},{"buffer":0,"byteOffset":36784,"byteLength":6336,"target":34963}],"buffers":[{"byteLength":43120,"uri":"data:application/octet-stream;base64,"}],"accessors":[{"bufferView":0,"componentType":5126,"count":836,"max":[0.3499999940395355,1.2000000476837158,0.02500000037252903],"min":[-0.3499999940395355,3.725290298461914e-9,-0.02500000037252903],"type":"VEC3"},{"bufferView":1,"componentType":5126,"count":836,"max":[1,1,1],"min":[-1,-1,-1],"type":"VEC3"},{"bufferView":2,"componentType":5126,"count":836,"max":[0.8666666746139526,0.8235294222831726,0.6549019813537598],"min":[0,0.062745101749897,0.07450980693101883],"type":"VEC3"},{"bufferView":3,"componentType":5126,"count":836,"max":[13.999899864196777,23.999900817871094],"min":[-13.999899864196777,-0.9998999834060669],"type":"VEC2"},{"bufferView":4,"componentType":5125,"count":1584,"max":[835],"min":[0],"type":"SCALAR"}],"materials":[{"pbrMetallicRoughness":{"metallicFactor":0,"roughnessFactor":1}}],"meshes":[{"primitives":[{"mode":4,"attributes":{"POSITION":0,"NORMAL":1,"COLOR_0":2,"TEXCOORD_0":3},"indices":4,"material":0}]}]}