{"asset":{"version":"2.0","generator":"THREE.GLTFExporter"},"scenes":[{"name":"AuxScene","nodes":[0]}],"scene":0,"nodes":[{"mesh":0}],"bufferViews":[{"buffer":0,"byteOffset":0,"byteLength":7848,"target":34962,"byteStride":12},{"buffer":0,"byteOffset":7848,"byteLength":7848,"target":34962,"byteStride":12},{"buffer":0,"byteOffset":15696,"byteLength":7848,"target":34962,"byteStride":12},{"buffer":0,"byteOffset":23544,"byteLength":5232,"target":34962,"byteStride":8},{"buffer":0,"byteOffset":28776,"byteLength":5088,"target":34963}],"buffers":[{"byteLength":33864,"uri":"data:application/octet-stream;base64,"}],"accessors":[{"bufferView":0,"componentType":5126,"count":654,"max":[0.3499999940395355,1,0.02500000037252903],"min":[-0.3499999940395355,1.1175870895385742e-8,-0.02500000037252903],"type":"VEC3"},{"bufferView":1,"componentType":5126,"count":654,"max":[1,1,1],"min":[-1,-1,-1],"type":"VEC3"},{"bufferView":2,"componentType":5126,"count":654,"max":[1,0.8235294222831726,0.23137255012989044],"min":[0.04313725605607033,0.062745101749897,0.0313725508749485],"type":"VEC3"},{"bufferView":3,"componentType":5126,"count":654,"max":[13.999899864196777,19.999900817871094],"min":[-13.999899864196777,-0.9998999834060669],"type":"VEC2"},{"bufferView":4,"componentType":5125,"count":1272,"max":[653],"min":[0],"type":"SCALAR"}],"materials":[{"pbrMetallicRoughness":{"metallicFactor":0,"roughnessFactor":1}}],"meshes":[{"primitives":[{"mode":4,"attributes":{"POSITION":0,"NORMAL":1,"COLOR_0":2,"TEXCOORD_0":3},"indices":4,"material":0}]}]}