{"asset":{"version":"2.0","generator":"THREE.GLTFExporter"},"scenes":[{"name":"AuxScene","nodes":[0]}],"scene":0,"nodes":[{"mesh":0}],"bufferViews":[{"buffer":0,"byteOffset":0,"byteLength":9960,"target":34962,"byteStride":12},{"buffer":0,"byteOffset":9960,"byteLength":9960,"target":34962,"byteStride":12},{"buffer":0,"byteOffset":19920,"byteLength":9960,"target":34962,"byteStride":12},{"buffer":0,"byteOffset":29880,"byteLength":6640,"target":34962,"byteStride":8},{"buffer":0,"byteOffset":36520,"byteLength":6096,"target":34963}],"buffers":[{"byteLength":42616,"uri":"data:application/octet-stream;base64,"}],"accessors":[{"bufferView":0,"componentType":5126,"count":830,"max":[0.45000001788139343,1.100000023841858,0.02500000037252903],"min":[-0.45000001788139343,-7.450580596923828e-9,-0.02500000037252903],"type":"VEC3"},{"bufferView":1,"componentType":5126,"count":830,"max":[1,1,1],"min":[-1,-1,-1],"type":"VEC3"},{"bufferView":2,"componentType":5126,"count":830,"max":[0.8156862854957581,0.7568627595901489,0.45098039507865906],"min":[0.04313725605607033,0.062745101749897,0.07450980693101883],"type":"VEC3"},{"bufferView":3,"componentType":5126,"count":830,"max":[17.999900817871094,21.999900817871094],"min":[-17.999900817871094,-0.9998999834060669],"type":"VEC2"},{"bufferView":4,"componentType":5125,"count":1524,"max":[829],"min":[0],"type":"SCALAR"}],"materials":[{"pbrMetallicRoughness":{"metallicFactor":0,"roughnessFactor":1}}],"meshes":[{"primitives":[{"mode":4,"attributes":{"POSITION":0,"NORMAL":1,"COLOR_0":2,"TEXCOORD_0":3},"indices":4,"material":0}]}]}