{"asset":{"version":"2.0","generator":"THREE.GLTFExporter"},"scenes":[{"name":"AuxScene","nodes":[0]}],"scene":0,"nodes":[{"mesh":0}],"bufferViews":[{"buffer":0,"byteOffset":0,"byteLength":15576,"target":34962,"byteStride":12},{"buffer":0,"byteOffset":15576,"byteLength":15576,"target":34962,"byteStride":12},{"buffer":0,"byteOffset":31152,"byteLength":15576,"target":34962,"byteStride":12},{"buffer":0,"byteOffset":46728,"byteLength":10384,"target":34962,"byteStride":8},{"buffer":0,"byteOffset":57112,"byteLength":9912,"target":34963}],"buffers":[{"byteLength":67024,"uri":"data:application/octet-stream;base64,"}],"accessors":[{"bufferView":0,"componentType":5126,"count":1298,"max":[0.550000011920929,1.2000000476837158,0.02500000037252903],"min":[-0.550000011920929,3.725290298461914e-9,-0.02500000037252903],"type":"VEC3"},{"bufferView":1,"componentType":5126,"count":1298,"max":[1,1,1],"min":[-1,-1,-1],"type":"VEC3"},{"bufferView":2,"componentType":5126,"count":1298,"max":[0.5254902243614197,0.7568627595901489,0.6549019813537598],"min":[0,0.062745101749897,0.07450980693101883],"type":"VEC3"},{"bufferView":3,"componentType":5126,"count":1298,"max":[21.999900817871094,23.999900817871094],"min":[-21.999900817871094,-0.9998999834060669],"type":"VEC2"},{"bufferView":4,"componentType":5125,"count":2478,"max":[1297],"min":[0],"type":"SCALAR"}],"materials":[{"pbrMetallicRoughness":{"metallicFactor":0,"roughnessFactor":1}}],"meshes":[{"primitives":[{"mode":4,"attributes":{"POSITION":0,"NORMAL":1,"COLOR_0":2,"TEXCOORD_0":3},"indices":4,"material":0}]}]}