{"asset":{"version":"2.0","generator":"THREE.GLTFExporter"},"scenes":[{"name":"AuxScene","nodes":[0]}],"scene":0,"nodes":[{"mesh":0}],"bufferViews":[{"buffer":0,"byteOffset":0,"byteLength":11472,"target":34962,"byteStride":12},{"buffer":0,"byteOffset":11472,"byteLength":11472,"target":34962,"byteStride":12},{"buffer":0,"byteOffset":22944,"byteLength":11472,"target":34962,"byteStride":12},{"buffer":0,"byteOffset":34416,"byteLength":7648,"target":34962,"byteStride":8},{"buffer":0,"byteOffset":42064,"byteLength":7200,"target":34963}],"buffers":[{"byteLength":49264,"uri":"data:application/octet-stream;base64,"}],"accessors":[{"bufferView":0,"componentType":5126,"count":956,"max":[0.45000001788139343,1.2000000476837158,0.02500000037252903],"min":[-0.45000001788139343,3.725290298461914e-9,-0.02500000037252903],"type":"VEC3"},{"bufferView":1,"componentType":5126,"count":956,"max":[1,1,1],"min":[-1,-1,-1],"type":"VEC3"},{"bufferView":2,"componentType":5126,"count":956,"max":[0.9686274528503418,0.8509804010391235,0.6549019813537598],"min":[0,0.062745101749897,0.07450980693101883],"type":"VEC3"},{"bufferView":3,"componentType":5126,"count":956,"max":[17.999900817871094,23.999900817871094],"min":[-17.999900817871094,-0.9998999834060669],"type":"VEC2"},{"bufferView":4,"componentType":5125,"count":1800,"max":[955],"min":[0],"type":"SCALAR"}],"materials":[{"pbrMetallicRoughness":{"metallicFactor":0,"roughnessFactor":1}}],"meshes":[{"primitives":[{"mode":4,"attributes":{"POSITION":0,"NORMAL":1,"COLOR_0":2,"TEXCOORD_0":3},"indices":4,"material":0}]}]}